<svg width="16" height="16" viewBox="0 0 16 16" fill="none" xmlns="http://www.w3.org/2000/svg">
<g clip-path="url(#clip0_1_29)">
<path d="M15.5837 13.6039L9.30979 7.33L1.97979 0H1.40695L1.28998 0.297219C0.981263 1.08172 0.849356 1.88409 0.908575 2.6175C0.976075 3.4535 1.29367 4.17728 1.82708 4.71069L7.54926 10.4329L8.30401 9.67813L13.5942 15.5935C14.1204 16.1198 15.0262 16.151 15.5837 15.5935C16.1323 15.045 16.1323 14.1525 15.5837 13.6039Z" fill="#FE4A51"/>
<path d="M4.89774 9.10767L0.416151 13.5893C-0.132349 14.1378 -0.132349 15.0303 0.416151 15.5788C0.937213 16.0999 1.83862 16.1459 2.40568 15.5788L6.88731 11.0972L4.89774 9.10767Z" fill="#FE4A51"/>
<path d="M15.3204 2.66398L12.7782 5.20617L12.115 4.54298L14.6572 2.00076L13.994 1.33757L11.4518 3.87976L10.7886 3.21657L13.3308 0.674387L12.6677 0.0112305L9.35175 3.32717C8.94609 3.73282 8.70388 4.27145 8.66963 4.84389C8.66097 4.98892 8.62809 5.13157 8.57356 5.26726L10.7276 7.42129C10.8633 7.3667 11.006 7.33385 11.151 7.3252C11.7234 7.29104 12.262 7.04876 12.6677 6.6431L15.9836 3.3272L15.3204 2.66398Z" fill="#FE4A51"/>
</g>
<defs>
<clipPath id="clip0_1_29">
<rect width="16" height="16" fill="white"/>
</clipPath>
</defs>
</svg>
